# xmcd CD database file
#
# Track frame offsets:
#	152
#	18479
#	35504
#	51069
#	67168
#	82754
#	98089
#	112669
#	127780
#	141125
#	158452
#	178379
#	195369
#	211136
#	227660
#	242959
#	259872
#	279188
#	299436
#
# Disc length: 4200 seconds
#
# Revision: 0
# Processed by: cddbd v1.5.2PL0 Copyright (c) Steve Scherf et al.
# Submitted via: CDex 1.51
#
DISCID=fd106613
DTITLE=Various Artist - 700% Pure Dance
DYEAR=1998
DGENRE=90's
TTITLE0=Run DMC - It's Like That (Drop The Break Radio Edit) (vs. Jason Nevins)
TTITLE1=Carlos - The Silmarillia (Radio Edit)
TTITLE2=Club Royale - Loosing Sleep (Radio Edit)
TTITLE3=Frisco Fightas - Pump It Up Homeboy (Radio Edit)
TTITLE4=Blank and Jones - Heartbeat (Video Mix)
TTITLE5=Trance.Atlantic.Air.Waves - Chase (DJ Quicksilver Radio Edit)
TTITLE6=Paffendorf - Smile (Radio Mix)
TTITLE7=Camisra - Let Me Show You (Radio Edit)
TTITLE8=BB Inc. - Tar-Zan (Radio Edit)
TTITLE9=Rest Assured - Treat Infamy (7" Main Mix)
TTITLE10=G. Park - Come Down!
TTITLE11=Groove Gangsters - Funky Beats (Radio Edit)
TTITLE12=Blusonic - Deepseadiver (Single Edit)
TTITLE13=Plastic Voice - Los Ninos Del Parque (Short Version)
TTITLE14=Shahin and Simon - Houseshaker (Radio Mix)
TTITLE15=Trevor Reilly - Down With The Underground (Radio Edit)
TTITLE16=Hanson - I Will Come To You (Tee's Radio)
TTITLE17=Essence - The Promise (Space Brothers Rethink Remix Edit)
TTITLE18=Nalin and Kane - Talkin' About (Radio Edit)
EXTD=YEAR: 1998
EXTT0=
EXTT1=
EXTT2=
EXTT3=
EXTT4=
EXTT5=
EXTT6=
EXTT7=
EXTT8=
EXTT9=
EXTT10=
EXTT11=
EXTT12=
EXTT13=
EXTT14=
EXTT15=
EXTT16=
EXTT17=
EXTT18=
PLAYORDER=
